<?xml version="1.0" encoding="UTF-8" standalone="no"?>
<!DOCTYPE svg PUBLIC "-//W3C//DTD SVG 1.1//EN" "http://www.w3.org/Graphics/SVG/1.1/DTD/svg11.dtd">
<svg width="100%" height="100%" viewBox="0 0 1080 1080" version="1.1" xmlns="http://www.w3.org/2000/svg" xmlns:xlink="http://www.w3.org/1999/xlink" xml:space="preserve" xmlns:serif="http://www.serif.com/" style="fill-rule:evenodd;clip-rule:evenodd;stroke-linejoin:round;stroke-miterlimit:2;">
    <g>
        <g transform="matrix(1.66945,-1.34933e-34,1.34933e-34,1.66945,-283.347,-397.086)">
            <path d="M431.969,529.782C431.692,528.34 431.886,526.688 432.895,525.167C434.706,522.436 438.016,521.591 445.369,520.876C474.488,518.046 566.793,519.027 583.276,522.637C588.158,523.707 589.722,525.75 590.513,529.74C593.33,543.946 596.472,635.484 591.283,658.414C590.24,663.02 588.967,665.078 586.302,666.794C582.913,668.977 574.084,673.092 523.574,673.485C469.938,673.902 396.077,669.741 384.181,666.544C383.591,666.385 379.594,665.536 378.512,661.724C378.122,660.35 378.278,659.123 378.564,658.2C379.94,642.701 379.648,488.77 382.25,472.439C382.82,468.859 384.21,467.76 385.86,466.737C393.635,461.921 416.538,455.914 517.535,459.52C529.077,459.932 543.153,460.544 544.461,460.646C561.914,462.006 575.132,463.416 578.119,463.696C586.492,464.482 591.816,464.697 593.93,463.546C597.109,461.815 603.572,456.449 611.886,450.611C624.05,442.072 623.915,441.888 634.382,433.321C639.464,429.161 643.867,425.635 644.226,425.348C644.654,425.004 644.679,424.998 645.227,425.033C645.238,425.034 646.146,425.47 646.147,425.476C646.253,425.795 646.482,426.1 646.46,426.436C646.438,426.783 646.213,427.092 646.024,427.385C645.957,427.489 642.827,430.373 632.939,440.118C626.141,446.818 625.216,447.698 614.332,456.875C609.265,461.147 600.748,469.454 597.005,471.343C592.25,473.743 584.724,473.641 570.027,473.31C566.879,473.239 557.6,472.836 543.889,472.582C537.998,472.473 446.612,467.392 406.833,473.12C399.693,474.149 395.886,475.286 393.871,476.101C391.855,497.361 391.854,628.119 390.707,655.608C415.58,659.342 530.806,664.777 570.386,659.037C572.173,658.777 574.095,658.434 575.471,658.122C577.592,657.642 578.682,657.255 579.292,656.983C580.87,651.87 582.484,633.517 581.989,596.014C581.627,568.583 580.264,542.903 579.074,534.036C566.423,532.045 519.605,530.79 479.546,531.329C461.714,531.569 449.527,532.17 443.639,532.932C443.339,542.985 442.578,570.556 442.677,590.345C442.722,599.472 442.94,604.401 443.153,607.101C461.278,608.403 518.483,612.344 530.787,609.105C530.844,608.905 530.921,608.634 531.066,608.188C532.905,602.547 534.592,586.565 533.25,563.576C533.216,562.995 533.065,562.941 533.416,562.475C533.421,562.469 534.54,561.869 534.544,561.87C534.909,561.967 535.336,561.939 535.637,562.166C535.945,562.399 536.081,562.803 536.243,563.153C536.321,563.323 537.186,567.607 537.265,567.995C540.572,584.379 542.553,602.022 541.025,610.966C541.012,611.043 540.699,612.417 540.2,613.651C538.783,617.15 536.729,618.287 533.683,619.147C524.973,621.604 501.677,622.18 441.109,618.266C440.827,618.247 437.824,618.053 437.59,618.012C436.671,617.849 433.907,617.134 432.736,613.513C432.156,611.723 430.648,607.301 431.409,557.014C431.603,544.203 431.871,533.545 431.969,529.782Z" style="fill:white;"/>
        </g>
        <g transform="matrix(1.66945,-1.34933e-34,1.34933e-34,1.66945,-342.163,-414.722)">
            <path d="M377.842,709.934C377.368,710.145 376.759,710.283 376.019,710.182C374.258,709.939 373.57,708.577 373.457,708.352C372.636,706.725 373.422,705.325 373.55,705.098C373.557,705.085 373.567,705.068 373.579,705.047C376.363,698.799 385.063,676.865 395.763,651.32C395.813,651.2 406.746,625.378 412.721,613.552C412.845,613.306 414.18,610.664 414.317,610.508C414.839,609.916 415.259,609.214 415.886,608.735C416.173,608.516 417.825,607.252 420.246,607.565C422.743,607.889 424.044,609.592 424.269,609.887C425.748,611.824 425.485,613.888 425.439,614.247C425.229,615.888 425.068,615.85 424.226,617.275C418.78,626.495 407.879,649.271 403.866,657.461C398.365,668.688 388.346,689.425 382.601,701.7C383.366,701.496 384.217,701.266 385.164,701.009C407.352,694.976 442.816,684.543 468,677.546C473.746,675.95 485.43,672.309 488.211,672.18C490.765,672.061 492.121,673.403 492.371,673.651C492.45,673.729 492.964,674.238 493.259,674.707C494.78,677.121 493.905,679.342 493.757,679.716C493.634,680.028 492.927,681.821 490.839,682.73C490.197,683.01 489.488,683.174 488.787,683.188C487.721,683.209 486.999,683.789 486.75,683.404C482.237,684.22 472.715,686.343 470.427,686.896C448.255,692.256 410.937,701.745 399.766,704.546C391.423,706.638 382.991,708.824 377.842,709.934ZM483.637,676.04C483.617,675.932 483.594,675.819 483.567,675.698L483.472,675.985L483.637,676.04Z" style="fill:white;"/>
        </g>
        <path d="M962.562,579.072C961.189,579.125 959.963,580.12 958.591,580.173C948.331,580.567 948.327,580.422 830.299,583.928C757.047,586.103 757.051,586.214 683.772,587.176C672.23,587.327 592.356,588.375 539.496,588.754C466.413,589.277 451.862,589.129 390.245,588.531C380.763,588.44 312.966,587.783 271.726,586.94L232.261,585.841C195.427,584.69 101.252,581.321 101.213,581.304C100.861,581.152 100.431,581.114 100.16,580.844C100.148,580.831 99.715,579.798 99.718,579.789C99.863,579.445 99.896,579.024 100.16,578.76C100.431,578.489 100.838,578.377 101.213,578.295C101.229,578.292 196.564,574.739 232.251,573.566C238.903,573.348 245.558,573.174 252.211,572.978C280.855,572.134 280.851,572.174 309.5,571.713C369.495,570.748 435.582,570.103 452.825,570.002C492.817,569.768 537.656,570.126 545.033,570.185L683.758,571.47C742.632,572.142 742.629,572.072 801.491,573.661L958.579,577.997C960.657,578.054 960.553,578.53 962.562,579.072Z" style="fill:white;"/>
    </g>
</svg>
